<svg xmlns="http://www.w3.org/2000/svg" viewBox="57.7 57.7 1186.7 1186.7"><g transform="translate(0.000000,1302.000000) scale(0.100000,-0.100000)" fill="#26b24b" fill-rule="evenodd"><path d="M4783 9882 c-13 -62 -9 -350 6 -427 20 -104 66 -240 108 -325 69
-135 134 -222 273 -360 196 -197 346 -295 658 -429 246 -106 353 -177 458
-300 84 -100 177 -251 154 -251 -6 0 -56 43 -111 95 -212 201 -506 359 -845
455 -165 47 -368 78 -621 95 -570 39 -1068 102 -1663 211 -715 131 -1136 256
-1543 460 -153 77 -256 135 -382 215 -49 32 -91 56 -93 54 -7 -6 49 -177 105
-325 204 -536 530 -1022 938 -1401 263 -244 598 -475 928 -641 310 -155 467
-209 1537 -527 998 -297 1079 -327 1342 -500 158 -104 204 -150 214 -216 14
-97 -46 -234 -148 -340 -32 -32 -58 -59 -58 -60 0 0 96 1 212 3 216 4 608 -11
773 -29 50 -5 126 -16 170 -25 87 -18 372 -95 529 -144 214 -66 270 -73 611
-74 291 -2 314 -3 376 -24 165 -55 204 -128 160 -302 -27 -107 -56 -170 -118
-251 l-50 -66 96 37 c262 103 547 240 731 352 58 35 153 99 210 142 116 86
253 158 345 181 196 50 431 35 646 -40 l73 -25 80 78 c244 238 555 385 858
408 87 7 118 20 102 45 -4 7 -113 63 -242 126 -130 63 -261 132 -293 154 -32
21 -96 83 -143 136 -226 261 -406 353 -691 353 -125 0 -239 -21 -337 -61 -108
-45 -350 -118 -431 -130 -200 -31 -404 40 -504 176 -80 107 -107 222 -92 382
11 120 41 245 127 533 l67 225 0 130 c0 104 -5 145 -23 208 -45 157 -120 274
-263 412 -101 97 -164 142 -292 210 -241 128 -663 255 -1097 330 -795 139
-1302 283 -1860 532 -312 139 -668 344 -927 535 l-52 38 -8 -38z M6390 5234 c-341 -23 -782 -68 -1010 -105 -365 -57 -941 -190 -1407
-325 -440 -126 -868 -280 -1179 -422 -160 -74 -536 -261 -709 -354 -305 -165
-605 -348 -649 -397 -17 -19 -17 -21 -2 -21 9 0 134 48 279 106 744 302 1258
440 1907 510 215 24 612 24 775 0 410 -59 662 -174 930 -427 240 -226 469
-371 778 -493 235 -93 524 -161 807 -192 118 -13 208 -15 380 -11 301 7 474
35 810 132 322 93 518 168 780 300 498 249 920 566 1526 1146 240 230 302 298
283 310 -8 5 -57 23 -109 41 -87 29 -106 32 -225 32 -154 0 -192 -11 -349
-103 -56 -32 -180 -100 -276 -151 -96 -51 -229 -124 -295 -162 -177 -103 -477
-248 -665 -321 -361 -142 -601 -200 -916 -222 -119 -8 -312 10 -433 41 -103
26 -254 95 -311 142 l-34 29 59 22 c92 35 181 51 285 51 75 0 121 -7 220 -32
119 -31 134 -33 300 -32 146 0 188 4 252 22 248 68 443 204 523 366 54 107 46
185 -23 220 -49 25 -124 30 -442 31 l-315 1 -125 37 c-69 20 -196 59 -283 87
-163 51 -363 99 -522 126 -87 14 -491 26 -615 18z"/></g></svg>